<mxfile host="app.diagrams.net" modified="2024-02-22T12:52:09.420Z" agent="Mozilla/5.0 (Windows NT 10.0; Win64; x64) AppleWebKit/537.36 (KHTML, like Gecko) Chrome/122.0.0.0 Safari/537.36" etag="mUKyCsnjNsww3_KJ_bzH" version="23.1.4" type="github">
  <diagram name="Страница — 1" id="xAHuxAXC8Gdwg_maxAEB">
    <mxGraphModel dx="2261" dy="738" grid="1" gridSize="10" guides="1" tooltips="1" connect="1" arrows="1" fold="1" page="1" pageScale="1" pageWidth="827" pageHeight="1169" math="0" shadow="0">
      <root>
        <mxCell id="0" />
        <mxCell id="1" parent="0" />
        <mxCell id="3Bc7s75_fDl9805-6l4X-3" value="1С:ЭИОС" style="swimlane;startSize=0;" parent="1" vertex="1">
          <mxGeometry x="10" y="320" width="790" height="380" as="geometry" />
        </mxCell>
        <mxCell id="TVslKEjH0-iMzoudLQZH-47" value="" style="edgeStyle=orthogonalEdgeStyle;rounded=0;orthogonalLoop=1;jettySize=auto;html=1;entryX=0.25;entryY=0;entryDx=0;entryDy=0;" edge="1" parent="3Bc7s75_fDl9805-6l4X-3" source="3Bc7s75_fDl9805-6l4X-2" target="TVslKEjH0-iMzoudLQZH-21">
          <mxGeometry relative="1" as="geometry" />
        </mxCell>
        <mxCell id="TVslKEjH0-iMzoudLQZH-50" style="edgeStyle=orthogonalEdgeStyle;rounded=0;orthogonalLoop=1;jettySize=auto;html=1;exitX=0;exitY=0.5;exitDx=0;exitDy=0;entryX=0;entryY=0.5;entryDx=0;entryDy=0;" edge="1" parent="3Bc7s75_fDl9805-6l4X-3" source="3Bc7s75_fDl9805-6l4X-2" target="3Bc7s75_fDl9805-6l4X-8">
          <mxGeometry relative="1" as="geometry" />
        </mxCell>
        <mxCell id="3Bc7s75_fDl9805-6l4X-2" value="ЛК" style="rounded=0;whiteSpace=wrap;html=1;" parent="3Bc7s75_fDl9805-6l4X-3" vertex="1">
          <mxGeometry x="16" y="20" width="130" height="60" as="geometry" />
        </mxCell>
        <mxCell id="3Bc7s75_fDl9805-6l4X-7" value="Курсы" style="rounded=0;whiteSpace=wrap;html=1;" parent="3Bc7s75_fDl9805-6l4X-3" vertex="1">
          <mxGeometry x="16" y="100" width="130" height="60" as="geometry" />
        </mxCell>
        <mxCell id="TVslKEjH0-iMzoudLQZH-41" value="" style="edgeStyle=orthogonalEdgeStyle;rounded=0;orthogonalLoop=1;jettySize=auto;html=1;entryX=0.008;entryY=0.867;entryDx=0;entryDy=0;entryPerimeter=0;" edge="1" parent="3Bc7s75_fDl9805-6l4X-3" source="3Bc7s75_fDl9805-6l4X-8" target="TVslKEjH0-iMzoudLQZH-21">
          <mxGeometry relative="1" as="geometry" />
        </mxCell>
        <mxCell id="3Bc7s75_fDl9805-6l4X-8" value="Глобальные группы" style="rounded=0;whiteSpace=wrap;html=1;" parent="3Bc7s75_fDl9805-6l4X-3" vertex="1">
          <mxGeometry x="16" y="170" width="134" height="60" as="geometry" />
        </mxCell>
        <mxCell id="TVslKEjH0-iMzoudLQZH-19" value="Группы курса" style="rounded=0;whiteSpace=wrap;html=1;" vertex="1" parent="3Bc7s75_fDl9805-6l4X-3">
          <mxGeometry x="16" y="240" width="134" height="60" as="geometry" />
        </mxCell>
        <mxCell id="TVslKEjH0-iMzoudLQZH-25" value="Регламенты" style="swimlane;whiteSpace=wrap;html=1;" vertex="1" parent="3Bc7s75_fDl9805-6l4X-3">
          <mxGeometry x="320" y="20" width="445" height="350" as="geometry">
            <mxRectangle x="215" y="100" width="110" height="30" as="alternateBounds" />
          </mxGeometry>
        </mxCell>
        <mxCell id="TVslKEjH0-iMzoudLQZH-21" value="Зачисление на курс" style="shape=process;whiteSpace=wrap;html=1;backgroundOutline=1;" vertex="1" parent="TVslKEjH0-iMzoudLQZH-25">
          <mxGeometry x="15" y="50" width="120" height="60" as="geometry" />
        </mxCell>
        <mxCell id="TVslKEjH0-iMzoudLQZH-27" value="Группировка в группы курса" style="shape=process;whiteSpace=wrap;html=1;backgroundOutline=1;" vertex="1" parent="TVslKEjH0-iMzoudLQZH-25">
          <mxGeometry x="15" y="200" width="120" height="60" as="geometry" />
        </mxCell>
        <mxCell id="TVslKEjH0-iMzoudLQZH-42" value="" style="shape=process;whiteSpace=wrap;html=1;backgroundOutline=1;" vertex="1" parent="TVslKEjH0-iMzoudLQZH-25">
          <mxGeometry x="194" y="90" width="120" height="60" as="geometry" />
        </mxCell>
        <mxCell id="TVslKEjH0-iMzoudLQZH-35" value="" style="edgeStyle=orthogonalEdgeStyle;rounded=0;orthogonalLoop=1;jettySize=auto;html=1;exitX=0;exitY=0.75;exitDx=0;exitDy=0;" edge="1" parent="3Bc7s75_fDl9805-6l4X-3" source="TVslKEjH0-iMzoudLQZH-27" target="TVslKEjH0-iMzoudLQZH-19">
          <mxGeometry relative="1" as="geometry">
            <mxPoint x="320" y="270" as="sourcePoint" />
            <Array as="points">
              <mxPoint x="200" y="265" />
              <mxPoint x="200" y="265" />
            </Array>
          </mxGeometry>
        </mxCell>
        <mxCell id="TVslKEjH0-iMzoudLQZH-45" style="edgeStyle=orthogonalEdgeStyle;rounded=0;orthogonalLoop=1;jettySize=auto;html=1;exitX=1;exitY=0.75;exitDx=0;exitDy=0;entryX=0;entryY=0.5;entryDx=0;entryDy=0;" edge="1" parent="3Bc7s75_fDl9805-6l4X-3" source="3Bc7s75_fDl9805-6l4X-8" target="TVslKEjH0-iMzoudLQZH-27">
          <mxGeometry relative="1" as="geometry" />
        </mxCell>
        <mxCell id="TVslKEjH0-iMzoudLQZH-51" style="edgeStyle=orthogonalEdgeStyle;rounded=0;orthogonalLoop=1;jettySize=auto;html=1;exitX=0;exitY=0.5;exitDx=0;exitDy=0;entryX=1;entryY=0.5;entryDx=0;entryDy=0;" edge="1" parent="3Bc7s75_fDl9805-6l4X-3" source="TVslKEjH0-iMzoudLQZH-21" target="3Bc7s75_fDl9805-6l4X-7">
          <mxGeometry relative="1" as="geometry">
            <Array as="points">
              <mxPoint x="210" y="100" />
              <mxPoint x="210" y="130" />
            </Array>
          </mxGeometry>
        </mxCell>
        <mxCell id="TVslKEjH0-iMzoudLQZH-1" value="Мыслитель" style="swimlane;whiteSpace=wrap;html=1;" vertex="1" parent="1">
          <mxGeometry x="40" y="30" width="200" height="100" as="geometry" />
        </mxCell>
        <mxCell id="TVslKEjH0-iMzoudLQZH-4" value="Интеграция" style="rounded=0;whiteSpace=wrap;html=1;" vertex="1" parent="TVslKEjH0-iMzoudLQZH-1">
          <mxGeometry x="10" y="30" width="180" height="60" as="geometry" />
        </mxCell>
        <mxCell id="TVslKEjH0-iMzoudLQZH-13" value="" style="edgeStyle=orthogonalEdgeStyle;rounded=0;orthogonalLoop=1;jettySize=auto;html=1;" edge="1" parent="1" source="TVslKEjH0-iMzoudLQZH-4" target="3Bc7s75_fDl9805-6l4X-1">
          <mxGeometry relative="1" as="geometry" />
        </mxCell>
        <mxCell id="TVslKEjH0-iMzoudLQZH-14" value="1С:ОУ" style="swimlane;whiteSpace=wrap;html=1;" vertex="1" parent="1">
          <mxGeometry x="280" y="30" width="500" height="220" as="geometry" />
        </mxCell>
        <mxCell id="3Bc7s75_fDl9805-6l4X-1" value="Физическое Лицо" style="rounded=0;whiteSpace=wrap;html=1;" parent="TVslKEjH0-iMzoudLQZH-14" vertex="1">
          <mxGeometry x="20" y="140" width="120" height="60" as="geometry" />
        </mxCell>
        <mxCell id="TVslKEjH0-iMzoudLQZH-17" value="" style="edgeStyle=orthogonalEdgeStyle;rounded=0;orthogonalLoop=1;jettySize=auto;html=1;" edge="1" parent="TVslKEjH0-iMzoudLQZH-14" source="3Bc7s75_fDl9805-6l4X-4" target="TVslKEjH0-iMzoudLQZH-16">
          <mxGeometry relative="1" as="geometry" />
        </mxCell>
        <mxCell id="3Bc7s75_fDl9805-6l4X-4" value="Ученики" style="rounded=0;whiteSpace=wrap;html=1;" parent="TVslKEjH0-iMzoudLQZH-14" vertex="1">
          <mxGeometry x="20" y="30" width="120" height="60" as="geometry" />
        </mxCell>
        <mxCell id="TVslKEjH0-iMzoudLQZH-10" value="" style="edgeStyle=orthogonalEdgeStyle;rounded=0;orthogonalLoop=1;jettySize=auto;html=1;" edge="1" parent="TVslKEjH0-iMzoudLQZH-14" source="3Bc7s75_fDl9805-6l4X-4" target="3Bc7s75_fDl9805-6l4X-1">
          <mxGeometry relative="1" as="geometry" />
        </mxCell>
        <mxCell id="TVslKEjH0-iMzoudLQZH-15" value="КТП" style="rounded=0;whiteSpace=wrap;html=1;" vertex="1" parent="TVslKEjH0-iMzoudLQZH-14">
          <mxGeometry x="370" y="30" width="120" height="60" as="geometry" />
        </mxCell>
        <mxCell id="TVslKEjH0-iMzoudLQZH-18" value="" style="edgeStyle=orthogonalEdgeStyle;rounded=0;orthogonalLoop=1;jettySize=auto;html=1;" edge="1" parent="TVslKEjH0-iMzoudLQZH-14" source="TVslKEjH0-iMzoudLQZH-16" target="TVslKEjH0-iMzoudLQZH-15">
          <mxGeometry relative="1" as="geometry" />
        </mxCell>
        <mxCell id="TVslKEjH0-iMzoudLQZH-16" value="Приказы" style="shape=document;whiteSpace=wrap;html=1;boundedLbl=1;" vertex="1" parent="TVslKEjH0-iMzoudLQZH-14">
          <mxGeometry x="190" y="30" width="120" height="80" as="geometry" />
        </mxCell>
        <mxCell id="TVslKEjH0-iMzoudLQZH-32" value="" style="edgeStyle=orthogonalEdgeStyle;rounded=0;orthogonalLoop=1;jettySize=auto;html=1;entryX=0.167;entryY=1;entryDx=0;entryDy=0;entryPerimeter=0;" edge="1" parent="TVslKEjH0-iMzoudLQZH-14" source="TVslKEjH0-iMzoudLQZH-29" target="TVslKEjH0-iMzoudLQZH-15">
          <mxGeometry relative="1" as="geometry">
            <Array as="points">
              <mxPoint x="240" y="130" />
              <mxPoint x="390" y="130" />
            </Array>
          </mxGeometry>
        </mxCell>
        <mxCell id="TVslKEjH0-iMzoudLQZH-29" value="Группы Обучения" style="rounded=0;whiteSpace=wrap;html=1;" vertex="1" parent="TVslKEjH0-iMzoudLQZH-14">
          <mxGeometry x="180" y="140" width="120" height="60" as="geometry" />
        </mxCell>
        <mxCell id="TVslKEjH0-iMzoudLQZH-31" value="" style="edgeStyle=orthogonalEdgeStyle;rounded=0;orthogonalLoop=1;jettySize=auto;html=1;exitX=0.917;exitY=-0.033;exitDx=0;exitDy=0;exitPerimeter=0;" edge="1" parent="TVslKEjH0-iMzoudLQZH-14" source="TVslKEjH0-iMzoudLQZH-30" target="TVslKEjH0-iMzoudLQZH-15">
          <mxGeometry relative="1" as="geometry" />
        </mxCell>
        <mxCell id="TVslKEjH0-iMzoudLQZH-30" value="Классы" style="rounded=0;whiteSpace=wrap;html=1;" vertex="1" parent="TVslKEjH0-iMzoudLQZH-14">
          <mxGeometry x="320" y="140" width="120" height="60" as="geometry" />
        </mxCell>
        <mxCell id="TVslKEjH0-iMzoudLQZH-28" value="LMS Moodle" style="swimlane;whiteSpace=wrap;html=1;" vertex="1" parent="1">
          <mxGeometry x="34" y="760" width="766" height="200" as="geometry" />
        </mxCell>
        <mxCell id="TVslKEjH0-iMzoudLQZH-38" value="" style="edgeStyle=orthogonalEdgeStyle;rounded=0;orthogonalLoop=1;jettySize=auto;html=1;" edge="1" parent="1" source="3Bc7s75_fDl9805-6l4X-1" target="3Bc7s75_fDl9805-6l4X-2">
          <mxGeometry relative="1" as="geometry" />
        </mxCell>
      </root>
    </mxGraphModel>
  </diagram>
</mxfile>
